<?xml version="1.0" encoding="utf-8"?>
<!-- Generator: Adobe Illustrator 24.2.0, SVG Export Plug-In . SVG Version: 6.00 Build 0)  -->
<svg version="1.1" id="Calque_1" xmlns="http://www.w3.org/2000/svg" xmlns:xlink="http://www.w3.org/1999/xlink" x="0px" y="0px"
	 viewBox="0 0 512 512" style="enable-background:new 0 0 512 512;" xml:space="preserve">
<style type="text/css">
	.st0{fill:#020203;}
</style>
<g>
	<g>
		<path class="st0" d="M236.8,20.1v423.6L167,373.5c-7.8-7.8-20.5-7.9-28.3-0.1c-7.8,7.8-7.9,20.5-0.1,28.3l104,104.5c0,0,0,0,0,0
			c7.8,7.8,20.5,7.8,28.3,0c0,0,0,0,0,0l104-104.5c7.8-7.8,7.8-20.5-0.1-28.3c-7.8-7.8-20.5-7.8-28.3,0.1l-69.8,70.2V20.1
			c0-11-9-20-20-20C245.8,0.1,236.8,9.1,236.8,20.1z"/>
	</g>
</g>
</svg>
