<?xml version="1.0" encoding="utf-8"?>
<!-- Generator: Adobe Illustrator 25.4.1, SVG Export Plug-In . SVG Version: 6.00 Build 0)  -->
<svg version="1.1" id="Calque_1" xmlns="http://www.w3.org/2000/svg" xmlns:xlink="http://www.w3.org/1999/xlink" x="0px" y="0px"
	 viewBox="0 0 512 512" style="enable-background:new 0 0 512 512;" xml:space="preserve">
<g>
	<g>
		<g>
			<path d="M497.4,83.7h-482c-5.5,0-10,4.5-10,10v324c0,5.5,4.5,10,10,10h482c5.5,0,10-4.5,10-10v-324
				C507.4,88.2,502.9,83.7,497.4,83.7z M487.4,407.7h-462v-304h462V407.7z"/>
			<path d="M301.4,300.7c0,5.6,0.8,11.1,2.4,16.3l-52.7,55.8c-2.7,2.9-3.5,7.1-1.9,10.8s5.1,6,9.1,6.1l42.9,0.5c0,0,0.1,0,0.1,0
				c2.6,0,5.2-1.1,7.1-2.9l32.9-32.9c5.2,1.6,10.6,2.4,16.1,2.4s10.9-0.8,16.1-2.4l32.9,32.9c1.9,1.9,4.4,2.9,7.1,2.9
				c0,0,0.1,0,0.1,0l42.9-0.5c4,0,7.5-2.4,9.1-6.1s0.8-7.9-1.9-10.8L410.9,317c1.6-5.3,2.4-10.7,2.4-16.3c0-30.9-25.1-56-56-56
				S301.4,269.8,301.4,300.7z M322.6,344.6l-25.5,25.5l-15.8-0.2l32.3-34.2l0,0C316.3,339,319.3,342,322.6,344.6L322.6,344.6z
				 M401.1,335.7L401.1,335.7l32.3,34.2l-15.8,0.2l-25.5-25.5l0,0C395.4,342,398.4,339,401.1,335.7z M393.4,300.7
				c0,5.1-1,10-3.1,14.6c-3.6,8.1-10.1,14.6-18.3,18.3c-4.6,2.1-9.5,3.1-14.6,3.1s-10-1-14.6-3.1c-8.2-3.6-14.6-10.1-18.3-18.3
				c-2.1-4.6-3.1-9.5-3.1-14.6c0-19.9,16.1-36,36-36S393.4,280.8,393.4,300.7z"/>
			<path d="M69.4,157.7h172c5.5,0,10-4.5,10-10s-4.5-10-10-10h-172c-5.5,0-10,4.5-10,10S63.9,157.7,69.4,157.7z"/>
			<path d="M285.4,157.7h23c5.5,0,10-4.5,10-10s-4.5-10-10-10h-23c-5.5,0-10,4.5-10,10S279.9,157.7,285.4,157.7z"/>
			<path d="M69.4,260.7h172c5.5,0,10-4.5,10-10s-4.5-10-10-10h-172c-5.5,0-10,4.5-10,10S63.9,260.7,69.4,260.7z"/>
			<path d="M69.4,208.7h314c5.5,0,10-4.5,10-10s-4.5-10-10-10h-314c-5.5,0-10,4.5-10,10S63.9,208.7,69.4,208.7z"/>
			<path d="M341.3,316.8c2,2,4.5,2.9,7.1,2.9s5.1-1,7.1-2.9l17-17c3.9-3.9,3.9-10.2,0-14.1c-3.9-3.9-10.2-3.9-14.1,0l-17,17
				C337.4,306.5,337.4,312.9,341.3,316.8z"/>
		</g>
	</g>
</g>
</svg>
