<?xml version="1.0" encoding="utf-8"?>
<!-- Generator: Adobe Illustrator 24.2.0, SVG Export Plug-In . SVG Version: 6.00 Build 0)  -->
<svg version="1.1" id="Calque_1" xmlns="http://www.w3.org/2000/svg" xmlns:xlink="http://www.w3.org/1999/xlink" x="0px" y="0px"
	 viewBox="0 0 512 512" style="enable-background:new 0 0 512 512;" xml:space="preserve">
<style type="text/css">
	.st0{fill:#020203;}
</style>
<path class="st0" d="M302.5,257.2L501.1,58.6c12.9-12.9,12.9-33.8,0-46.7C488.2-1,467.3-1,454.4,11.9L255.8,210.4L57.3,11.9
	C44.4-1,23.5-1,10.6,11.9c-12.9,12.9-12.9,33.8,0,46.7l198.5,198.5L10.6,455.7c-12.9,12.9-12.9,33.8,0,46.7
	c6.4,6.4,14.9,9.7,23.4,9.7s16.9-3.2,23.4-9.7l198.5-198.5l198.5,198.5c6.4,6.4,14.9,9.7,23.4,9.7c8.5,0,16.9-3.2,23.4-9.7
	c12.9-12.9,12.9-33.8,0-46.7L302.5,257.2z"/>
</svg>
