<?xml version="1.0" encoding="utf-8"?>
<!-- Generator: Adobe Illustrator 25.4.1, SVG Export Plug-In . SVG Version: 6.00 Build 0)  -->
<svg version="1.1" id="Calque_1" xmlns="http://www.w3.org/2000/svg" xmlns:xlink="http://www.w3.org/1999/xlink" x="0px" y="0px"
	 viewBox="0 0 512 512" style="enable-background:new 0 0 512 512;" xml:space="preserve">
<g>
	<path d="M487.3,99.2c0-35.1-28.4-63.6-63.3-63.6c-18.1,0-34.5,7.7-46,20c-11.5-12.3-27.9-20-46-20c-34.9,0-63.3,28.5-63.3,63.6
		c0,57.3,90.3,111.6,100.6,117.6c2.7,1.6,5.7,2.4,8.7,2.4c3,0,6-0.8,8.7-2.4C397,210.8,487.3,156.5,487.3,99.2z M452.8,99.2
		c0,26-42.8,62.1-74.8,82.5c-32-20.4-74.8-56.5-74.8-82.5c0-16,12.9-29,28.7-29c15.8,0,28.7,13,28.7,29c0,9.5,7.7,17.3,17.3,17.3
		s17.3-7.7,17.3-17.3c0-16,12.9-29,28.7-29C439.9,70.1,452.8,83.2,452.8,99.2z"/>
	<path d="M6.9,328.2c6.8,6.7,17.7,6.7,24.4,0L98.5,261c6.8-6.8,22.4-13.3,32-13.3h176.3c4.7,0,8.6,4,8.6,8.6v5.2
		c0,4.7-4,8.6-8.6,8.6h-62.2c-20.1,0-26.9,11.2-28.9,16.1c-2,4.8-5.1,17.6,9.1,31.8l20.4,20.4c13.9,13.9,39.1,22.3,58.7,19.6
		l148.3-21.2c6.8-1,14.6,0.5,19.8,2.6l-150.7,64.6c-9.7,4.1-27.8,5.6-38,3L219.5,391c-12.8-3.2-33.9-10.5-46-15.8l-16.8-7.5
		c-19.7-8.7-46.4-3.1-61,12.7l-60.8,66.4c-6.4,7-6,18,1.1,24.4c3.3,3,7.5,4.5,11.7,4.5c4.7,0,9.3-1.9,12.8-5.6l60.8-66.4
		c4.6-5,15.2-7.2,21.4-4.5l16.8,7.5c14.1,6.2,36.7,14,51.7,17.8l63.8,15.9c17.6,4.4,43.3,2.3,60-4.8l151.9-65.1
		c12.7-5.5,21.3-15,23.4-26.2c1.8-9.5-1.2-19.1-8.5-26.4c-11.6-11.6-35.1-18.3-54.6-15.5l-148.3,21.2c-8.8,1.3-23-3.5-29.3-9.8
		l-9.2-9.2h46.4c23.8,0,43.2-19.4,43.2-43.2v-5.2c0-23.8-19.4-43.2-43.2-43.2H130.5c-18.9,0-43.1,10.1-56.5,23.4L6.9,303.7
		C0.1,310.5,0.1,321.4,6.9,328.2z"/>
</g>
</svg>
