<?xml version="1.0" encoding="utf-8"?>
<!-- Generator: Adobe Illustrator 24.2.0, SVG Export Plug-In . SVG Version: 6.00 Build 0)  -->
<svg version="1.1" id="Calque_1" xmlns="http://www.w3.org/2000/svg" xmlns:xlink="http://www.w3.org/1999/xlink" x="0px" y="0px"
	 viewBox="0 0 512 512" style="enable-background:new 0 0 512 512;" xml:space="preserve">
<style type="text/css">
	.st0{fill:#020203;}
</style>
<g>
	<g>
		<g id="Layer_5_13_">
			<g>
				<path class="st0" d="M153.9,353.6c3.5,0.4,48.8,29.4,94.4,21.6c24.2-4.1,35.7-5.5,40.9-7c4.6-1.3,2.4-2.7,2.4-2.7l-22.9-18.2
					c-1.6-1.7-0.3-3,1-3.4c50.8-14.5,91-37.3,115-56.8c3.2-2.6,11.6,3.6,17.6,6.6c19.9,10,102.3,44,109.1,36.8
					c0.6-0.6,0.6-1.5,0-2.8c-11.6-24.4-53.5-45.2-37.5-79.6c1.6-3.5,12.8-18.3,22.9-33.6c0,0,0,0,0,0c2.3-3.5,4.5-6.9,6.6-10.3
					c0.1-0.1,0.1-0.2,0.2-0.3c0.3-0.6,24-38.4-9.7-23.1c0,0,0,0,0,0c-6.3,3.2-14.4,8.1-24.5,14.9c-22.1,14.8-66.9,36.4-66.9,36.4
					s-7.8,4.2-13,1c-26-16.2-64-45.1-114-61.1c-0.8-0.3-1.9-0.9-0.5-2.2l21.4-15c0,0,1.7-1.4-0.5-2.2c-10.6-3.5-54.7-18.3-92.9-4.6
					c-7.8,2.8-14.2,5-19.4,6.9c-2.3,0.8-4.6,1.8-9.1,2.3C70.4,160.7,0,237.2,0,267.4c0,20.3,10.9,33.9,50.9,52.8
					C50.9,320.3,125.6,344.9,153.9,353.6z M84.3,245.8c-7.3,0-13.3-6.1-13.3-13.5c0-7.5,5.9-13.5,13.3-13.5s13.3,6.1,13.3,13.5
					C97.6,239.8,91.7,245.8,84.3,245.8z"/>
			</g>
		</g>
	</g>
</g>
</svg>
