<?xml version="1.0" encoding="utf-8"?>
<!-- Generator: Adobe Illustrator 25.4.1, SVG Export Plug-In . SVG Version: 6.00 Build 0)  -->
<svg version="1.1" id="Calque_1" xmlns="http://www.w3.org/2000/svg" xmlns:xlink="http://www.w3.org/1999/xlink" x="0px" y="0px"
	 viewBox="0 0 512 512" style="enable-background:new 0 0 512 512;" xml:space="preserve">
<g>
	<g>
		<path d="M484.4,97.3H349.9l11.8-10.5c0.9-0.8,1.6-1.6,2.3-2.6c17.2-24.1,11.6-57.8-12.6-75c-11.5-8.2-26-11.1-39.8-7.9
			c-13.8,3.2-25.5,12.1-32.3,24.6l-23,42.5l-23-42.5c-6.7-12.4-18.5-21.4-32.3-24.6c-13.8-3.2-28.3-0.3-39.8,7.9
			c-24.1,17.2-29.8,50.8-12.6,75c0.7,0.9,1.5,1.8,2.3,2.6l11.8,10.5H28.3c-8.7,0-15.7,7-15.7,15.7v99.7c0,8.7,7,15.7,15.7,15.7h4.2
			v268.4c0,8.7,7,15.7,15.7,15.7h416.3c8.7,0,15.7-7,15.7-15.7V228.3h4.2c8.7,0,15.7-7,15.7-15.7V113
			C500.1,104.3,493.1,97.3,484.4,97.3z M307,40.8c2.5-4.6,6.6-7.7,11.7-8.9c1.4-0.3,2.7-0.5,4.1-0.5c3.7,0,7.2,1.1,10.3,3.3
			c4.9,3.5,8.1,8.6,9,14.5c0.9,5.4-0.2,10.8-3,15.4l-36.5,32.6h-26.3L307,40.8z M170.6,49.2c1-5.9,4.2-11,9.1-14.5
			c4.2-3,9.4-4,14.4-2.9c5.1,1.2,9.2,4.3,11.7,8.9l30.6,56.4H210l-36.5-32.6C170.7,60,169.7,54.6,170.6,49.2z M197.9,481.1h-134
			V228.3h134C197.9,228.3,197.9,481.1,197.9,481.1z M283.4,481.1h-54.1V228.3h54.1V481.1z M448.8,481.1h-134V228.3h134V481.1z
			 M468.7,196.9H44v-68.2h424.7L468.7,196.9L468.7,196.9z"/>
	</g>
</g>
</svg>
