<?xml version="1.0" encoding="utf-8"?>
<!-- Generator: Adobe Illustrator 24.2.0, SVG Export Plug-In . SVG Version: 6.00 Build 0)  -->
<svg version="1.1" id="Calque_1" xmlns="http://www.w3.org/2000/svg" xmlns:xlink="http://www.w3.org/1999/xlink" x="0px" y="0px"
	 viewBox="0 0 512 512" style="enable-background:new 0 0 512 512;" xml:space="preserve">
<style type="text/css">
	.st0{fill:#020203;}
</style>
<g>
	<g>
		<path class="st0" d="M351.8,0.1h-192c-88.4,0-160,71.6-160,160v192c0,88.4,71.6,160,160,160h192c88.4,0,160-71.6,160-160v-192
			C511.8,71.8,440.2,0.1,351.8,0.1z M463.8,352.1c0,61.8-50.2,112-112,112h-192c-61.8,0-112-50.2-112-112v-192
			c0-61.8,50.2-112,112-112h192c61.8,0,112,50.2,112,112V352.1z"/>
	</g>
</g>
<g>
	<g>
		<path class="st0" d="M255.8,128.1c-70.7,0-128,57.3-128,128s57.3,128,128,128s128-57.3,128-128S326.5,128.1,255.8,128.1z
			 M255.8,336.1c-44.1,0-80-35.9-80-80c0-44.1,35.9-80,80-80s80,35.9,80,80C335.8,300.2,299.9,336.1,255.8,336.1z"/>
	</g>
</g>
<g>
	<g>
		<circle class="st0" cx="393.4" cy="118.5" r="17.1"/>
	</g>
</g>
</svg>
