<?xml version="1.0" encoding="utf-8"?>
<!-- Generator: Adobe Illustrator 24.2.0, SVG Export Plug-In . SVG Version: 6.00 Build 0)  -->
<svg version="1.1" id="Calque_1" xmlns="http://www.w3.org/2000/svg" xmlns:xlink="http://www.w3.org/1999/xlink" x="0px" y="0px"
	 viewBox="0 0 512 512" style="enable-background:new 0 0 512 512;" xml:space="preserve">
<style type="text/css">
	.st0{fill:#020203;}
</style>
<path class="st0" d="M511.7,512.1L511.7,512.1l0.1,0V324.3c0-91.9-19.8-162.6-127.2-162.6c-51.6,0-86.3,28.3-100.4,55.2h-1.5v-46.6
	H180.9v341.8h106V342.8c0-44.6,8.4-87.7,63.6-87.7c54.4,0,55.2,50.9,55.2,90.5v166.4L511.7,512.1z"/>
<path class="st0" d="M8.3,170.3h106.2v341.8H8.3L8.3,170.3z"/>
<path class="st0" d="M61.3,0.1C27.4,0.1-0.2,27.7-0.2,61.6s27.5,62.1,61.5,62.1s61.5-28.1,61.5-62.1C122.8,27.7,95.2,0.1,61.3,0.1z"
	/>
</svg>
