<?xml version="1.0" encoding="utf-8"?>
<!-- Generator: Adobe Illustrator 24.3.0, SVG Export Plug-In . SVG Version: 6.00 Build 0)  -->
<svg version="1.1" id="Calque_1" xmlns="http://www.w3.org/2000/svg" xmlns:xlink="http://www.w3.org/1999/xlink" x="0px" y="0px"
	 viewBox="0 0 512 512" style="enable-background:new 0 0 512 512;" xml:space="preserve">
<style type="text/css">
	.st0{fill:#1E2129;}
</style>
<g>
	<g>
		<path class="st0" d="M277.9,246.5c0.9-0.9,2.1-1.1,3.2-0.4l9.4,5.5c1.4,0.9,1.7,2.7,0.7,3.9c-4.8,5.8-12.1,9.4-20.9,9.4
			c-15.4,0-26.5-11.2-26.5-25.8c0-14.7,11.1-25.9,26.5-25.9c8.8,0,16.1,3.6,20.9,9.4c1,1.3,0.7,3-0.7,3.9l-9.4,5.6
			c-1.1,0.6-2.3,0.4-3.2-0.5c-1.9-1.9-4.5-3-7.6-3c-6.3,0-10.5,4.8-10.5,10.6c0,5.8,4.2,10.5,10.5,10.5
			C273.4,249.5,276,248.3,277.9,246.5z"/>
		<path class="st0" d="M358,239c0,14.6-11,25.9-26.5,25.9c-15.4,0-26.5-11.3-26.5-25.9c0-14.7,11.1-25.9,26.5-25.9
			C346.9,213,358,224.2,358,239z M342.1,239c0-5.8-4.2-10.6-10.6-10.6c-6.3,0-10.5,4.9-10.5,10.6c0,5.8,4.2,10.5,10.5,10.5
			C337.9,249.5,342.1,244.7,342.1,239z"/>
		<path class="st0" d="M403.7,213.3c1.6-0.3,3.1,0.9,3.1,2.5v11.2c0,1.6-1.4,2.7-2.8,2.6c-11.5-0.8-12.9,6.6-12.9,14.4v16
			c0,2-1.6,3.5-3.4,3.5h-9c-1.9,0-3.4-1.6-3.4-3.5v-42.4c0-2,1.6-3.5,3.4-3.5h9c1.9,0,3.4,1.6,3.4,3.5v4
			C394.1,217.1,398.8,214.2,403.7,213.3z"/>
		<path class="st0" d="M460.6,214.2h9.8c2,0,3.5,1.6,3.5,3.5v42.4c0,2-1.6,3.5-3.5,3.5h-9.8c-1.5,0-2.6-1.2-2.6-2.6v-2.2
			c-2.9,3.6-7.3,6-13.9,6c-15.4,0-23.7-13-23.7-25.8c0-13,8.3-25.9,23.7-25.9c6.6,0,11,2.4,13.9,6v-2.2
			C457.9,215.4,459.1,214.2,460.6,214.2z M457.5,239c0-6.6-4.7-10.6-10.6-10.6c-6.5,0-10.5,4.5-10.5,10.6c0,6,4,10.5,10.5,10.5
			C452.8,249.5,457.5,245.5,457.5,239z"/>
		<path class="st0" d="M497.6,195.4h9c1.9,0,3.4,1.6,3.4,3.5v61.3c0,2-1.6,3.5-3.4,3.5h-9c-1.9,0-3.4-1.6-3.4-3.5v-61.3
			C494.2,196.9,495.8,195.4,497.6,195.4z"/>
	</g>
	<g>
		<path class="st0" d="M261.9,301.3h10.2c0.6,0,1.1,0.5,1.1,1v13c0,0.5-0.4,0.9-0.9,0.9h-0.8c-0.5,0-0.8-0.4-0.9-0.8l-0.3-3.7
			c-1.9,3.1-5.1,5-9.8,5c-8.2,0-14-6.2-14-14.3c0-8.1,5.9-14.3,14-14.3c4.1,0,7.6,1.6,10.1,4.2c0.5,0.5,0.4,1.3-0.2,1.6l-1.5,1
			c-0.4,0.3-1,0.2-1.3-0.2c-1.7-1.8-4.1-2.9-7.1-2.9c-6.4,0-10,5.2-10,10.6s3.6,10.6,10,10.6c5.8,0,8.9-3.6,9.5-8.1h-8.1
			c-0.6,0-1.1-0.5-1.1-1.1v-1.5C260.8,301.7,261.3,301.3,261.9,301.3z"/>
		<path class="st0" d="M308,288.6c0.6,0,1.1,0.5,1.1,1.1v16c0,7.2-3.7,10.9-10.5,10.9c-6.7,0-10.5-3.8-10.5-10.9v-16
			c0-0.6,0.5-1.1,1.1-1.1h1.9c0.6,0,1.1,0.5,1.1,1.1V305c0,5.9,2.6,8,6.5,8c4,0,6.5-2.1,6.5-8v-15.3c0-0.6,0.5-1.1,1.1-1.1H308z"/>
		<path class="st0" d="M342,315.2l-2-5.7h-11.8l-2,5.7c-0.2,0.6-0.7,0.9-1.3,0.9h-2.3c-0.5,0-0.8-0.5-0.6-0.9l9.6-25.7
			c0.2-0.5,0.7-0.9,1.3-0.9h2.5c0.6,0,1.1,0.4,1.3,0.9l9.6,25.7c0.2,0.5-0.2,0.9-0.7,0.9h-2.2C342.7,316.1,342.2,315.8,342,315.2z
			 M338.7,305.9l-4.6-13.1l-4.6,13.1H338.7z"/>
		<path class="st0" d="M378.5,316.1h-2.2c-0.7,0-1.3-0.4-1.5-0.9l-5.2-9.7c-0.4,0-0.7,0-1.1,0h-4.6v9.6c0,0.6-0.5,1.1-1,1.1h-1.9
			c-0.6,0-1.1-0.5-1.1-1.1v-25.4c0-0.6,0.5-1.1,1.1-1.1h7.4c6.3,0,9.9,3.7,9.9,8.5c0,3.3-1.7,6.1-5,7.5l5.8,10.3
			C379.6,315.4,379.2,316.1,378.5,316.1z M368.5,301.9c3.8,0,5.9-1.9,5.9-4.9c0-3-2.1-4.9-5.9-4.9h-4.6v9.8H368.5z"/>
		<path class="st0" d="M415.6,302.4c0,7.8-5,13.8-14.4,13.8h-6.7c-0.6,0-1.1-0.5-1.1-1.1v-25.4c0-0.6,0.5-1.1,1.1-1.1h6.7
			C410.6,288.6,415.6,294.6,415.6,302.4z M411.6,302.4c0-6.2-3.9-10.2-10.4-10.2h-3.9v20.4h3.9C407.8,312.6,411.6,308.5,411.6,302.4
			z"/>
		<path class="st0" d="M431,288.6h1.9c0.6,0,1.1,0.5,1.1,1.1v25.4c0,0.6-0.5,1.1-1.1,1.1H431c-0.6,0-1.1-0.5-1.1-1.1v-25.4
			C430,289.1,430.4,288.6,431,288.6z"/>
		<path class="st0" d="M467.7,315.2l-2-5.7h-11.8l-2,5.7c-0.2,0.6-0.7,0.9-1.3,0.9h-2.3c-0.5,0-0.8-0.5-0.6-0.9l9.6-25.7
			c0.2-0.5,0.7-0.9,1.3-0.9h2.5c0.6,0,1.1,0.4,1.3,0.9l9.6,25.7c0.2,0.5-0.2,0.9-0.7,0.9H469C468.4,316.1,467.9,315.8,467.7,315.2z
			 M464.4,305.9l-4.6-13.1l-4.6,13.1H464.4z"/>
		<path class="st0" d="M504.5,288.6h1.9c0.6,0,1,0.5,1,1.1v25.4c0,0.6-0.5,1.1-1,1.1h-1.5c-0.6,0-1.1-0.3-1.4-0.7l-13.8-19.6v19.3
			c0,0.6-0.5,1.1-1,1.1h-1.9c-0.6,0-1.1-0.5-1.1-1.1v-25.4c0-0.6,0.5-1.1,1.1-1.1h1.5c0.6,0,1.1,0.3,1.5,0.7l13.7,19.5v-19.2
			C503.4,289.1,503.9,288.6,504.5,288.6z"/>
	</g>
	<path class="st0" d="M193.3,237.6c-10.2-52.3-60.9-86.5-113.2-76.3S-6.4,222.2,3.8,274.4c10.2,52.3,60.9,86.5,113.2,76.3
		C169.2,340.6,203.4,289.8,193.3,237.6z M152.2,331.4c-1.5-1.9-5.1-5-7.3-7.1c-1.7-1.6-8-6-3.6-12.7c4.7-7.1,7.3-10.3,9.5-12.9
		c3.4-4.1,5.2-6.4,11.1-19.1c8.3-18,12.9-28.9,10.9-41.9c-0.7-4.5-4-6.2-6.7-6.4c-2.5-0.2-4.6,1-5.1,2.9l-0.2,0.6
		c-1.4,5.3-1.5,5.4-1.6,9.4l0,1.6c-0.1,2.3-0.2,5.7-1.2,6.6c-0.1,0.1-0.4,0.3-1.3,0.2c-1.2-0.2-2.4-1-3.2-2.2
		c-6.4-9.2-8.4-10.1-13.1-8.6l-0.5,0.2c-1.1,0.4-2,1.2-2.4,2.3c-0.9,2.6,0.8,6.7,6,13.9c1.5,2.1,2.4,3.1,3.1,3.8
		c0.9,1,1.6,1.7,3.5,5c0.9,1.6-0.2,3.9-1.3,6.2c-0.4,0.8-0.8,1.7-1.1,2.4c-0.3,0.9-2.4,4.1-3.7,6c-3.3,4.8-7.9,9.3-10.4,11.6
		c-0.2,0.2-0.3,0.3-0.3,0.3c-1.5,1.6-2.1,1.6-2.1,1.6c-0.1,0-0.8-0.1-1-1.1c-3.3-14.4-2.4-11.6-6.1-21.3c-0.9-2.5-6.9-12.7-7.3-13.3
		c-0.7-3.1,0.4-6.6,1.5-10.6c1.4-4.9,3-10.4,2.5-17.4c-0.3-3.7-2.2-5.4-3.4-6.1c-1.6-1-3.4-1.2-4.9-0.6c-2.8,1.2-4.8,4.5-5.5,9
		c-0.6,4.1-0.7,5.7-0.8,7.4c0,0.6-0.1,1.1-0.1,1.8c-0.2,1.7-0.9,4-2,6.3c-4.9-3.7-18.3-15.2-19.4-17.6c-0.9-3.8-0.6-6.7-0.3-10.1
		c0.2-2.2,0.4-4.4,0.4-7.1c-0.1-7.9-2.1-15-5.9-16.3c-2.2-0.7-5.3-1.5-7.5,0.2c-2.5,1.9-2.2,4.2-2,8.9c0.1,1.8,0.2,3.8,0.1,5.8
		c0,1.6-0.1,2.7,0,3.5h0c0,0.2,0,0.8,0,2.4c0,0.8-0.6,1.1-0.8,1.2c-0.2,0.1-0.9,0.3-1.4-0.3c-4-3.9-6.1-6.4-7.3-7.9
		c-2.2-2.6-3-3.4-6.2-2.9c-3.1,0.5-5.6,2.2-6.6,4.7c-0.8,2.1-1.1,5.6,2.6,10.4c5.4,7.2,8.8,9.6,13.9,13.2c2,1.4,4.4,3.1,7.2,5.3
		l1.2,0.9c4.3,3.4,13.4,10.4,24.8,21.8c3.8,3.8,8.5,11.6,10.2,15.2c4,8.3,6.8,19.6,5.4,22.7c-0.4,0.8-1,1.4-1.7,1.6
		c-0.7,0.2-1.5-0.1-2.3-0.7c-12.9-9-14.5-9.9-26.5-14.9c-2.6-1.1-4.2-4.2-7-9.3c-1.8-3.3-4-7.3-7.1-12.1c-2-3-3.8-5.5-6.4-5.5
		c-1.6-0.1-3,0.8-4.4,2.6c-1.1,1.4-1.8,2.1-2.4,2.6c-2.2,2-1.7,3.3-0.7,5.8c0.2,0.5,0.4,1.2,0.7,2c1.3,3.6,2.7,5.8,3.9,7.6
		c1.5,2.3,2.5,3.8,2.5,7.2c0,1.3-1.5,3.1-2.8,3.3c-1.4,0.3-5.3,1-5.7,1.1c-0.2,0.1-0.2,0-0.4,0.1c-5.9,0.9-8.9,2.1-10.2,3.9
		c-1.1,1.5-0.8,3-0.6,4l0.1,0.3c1.1,7.3,6,6.8,13.3,6.1c0.9-0.1,1.9-0.2,3-0.3c3-0.3,5.9-0.9,8.6-1.6c5.2-1.3,9.7-3.7,14.1-1.6
		c9.7,4.7,16.5,9.5,17,9.8c2.8,1.8,9.3,8.1,10.1,16.9c0.4,4.5-3.5,13.2-3.6,16.2c-39.3,1.6-86.6-23.6-96.5-74.6
		c-9.7-50.1,23.1-98.8,73.2-108.5c50.1-9.7,98.8,23.1,108.5,73.2C196.5,275,180.8,310.9,152.2,331.4z"/>
</g>
</svg>
