<?xml version="1.0" encoding="utf-8"?>
<!-- Generator: Adobe Illustrator 24.2.0, SVG Export Plug-In . SVG Version: 6.00 Build 0)  -->
<svg version="1.1" id="Calque_1" xmlns="http://www.w3.org/2000/svg" xmlns:xlink="http://www.w3.org/1999/xlink" x="0px" y="0px"
	 viewBox="0 0 512 512" style="enable-background:new 0 0 512 512;" xml:space="preserve">
<style type="text/css">
	.st0{fill:#030304;}
</style>
<g>
	<g>
		<path class="st0" d="M275.9,397.2l226-226c5.2-5.2,8.1-12.2,8.1-19.6s-2.9-14.4-8.1-19.6l-16.6-16.6c-10.8-10.8-28.5-10.8-39.3,0
			L256.2,305l-190-190C61,109.8,54,107,46.6,107c-7.4,0-14.4,2.9-19.6,8.1l-16.6,16.6c-5.2,5.2-8.1,12.2-8.1,19.6s2.9,14.4,8.1,19.6
			l226.2,226.2c5.2,5.2,12.2,8.1,19.7,8.1C263.6,405.3,270.6,402.4,275.9,397.2z"/>
	</g>
</g>
</svg>
