<?xml version="1.0" encoding="utf-8"?>
<!-- Generator: Adobe Illustrator 25.4.1, SVG Export Plug-In . SVG Version: 6.00 Build 0)  -->
<svg version="1.1" id="Calque_1" xmlns="http://www.w3.org/2000/svg" xmlns:xlink="http://www.w3.org/1999/xlink" x="0px" y="0px"
	 viewBox="0 0 512 512" style="enable-background:new 0 0 512 512;" xml:space="preserve">
<path d="M267.2,2.5C295,2,322.5,2.3,350,2c0.9,34.4,14.9,65.4,37.1,88.3l0,0c23.9,21.5,55,35.5,89.3,37.9l0.5,0v85.3
	c-32.4-0.8-62.9-8.3-90.3-21.1l1.4,0.6c-13.3-6.4-24.5-12.9-35.2-20.3l0.9,0.6c-0.2,61.8,0.2,123.7-0.4,185.3
	c-1.7,31.4-12.2,60-28.9,84l0.3-0.5c-28,40.1-73.3,66.4-124.9,68h-0.2c-2.1,0.1-4.5,0.2-7,0.2c-29.3,0-56.7-8.2-80.1-22.4l0.7,0.4
	C70.5,462.7,41.2,418.9,35.8,368l-0.1-0.7c-0.4-10.6-0.6-21.2-0.2-31.6c8.3-81,76.2-143.6,158.6-143.6c9.3,0,18.4,0.8,27.2,2.3
	l-0.9-0.1c0.4,31.3-0.8,62.7-0.8,94c-7.2-2.6-15.4-4.1-24.1-4.1c-31.7,0-58.6,20.2-68.5,48.5l-0.2,0.5c-2.3,7.2-3.6,15.6-3.6,24.2
	c0,3.5,0.2,6.9,0.6,10.3l0-0.4c5.6,34.7,35.4,60.8,71.2,60.8c1,0,2.1,0,3.1-0.1h-0.2c24.8-0.7,46.3-14.1,58.5-33.8l0.2-0.3
	c4.5-6.3,7.6-13.9,8.7-22.2l0-0.2c2.1-37.9,1.3-75.6,1.5-113.5C266.9,172.7,266.5,87.5,267.2,2.5L267.2,2.5z"/>
</svg>
