<?xml version="1.0" encoding="utf-8"?>
<!-- Generator: Adobe Illustrator 24.2.0, SVG Export Plug-In . SVG Version: 6.00 Build 0)  -->
<svg version="1.1" id="Calque_1" xmlns="http://www.w3.org/2000/svg" xmlns:xlink="http://www.w3.org/1999/xlink" x="0px" y="0px"
	 viewBox="0 0 512 512" style="enable-background:new 0 0 512 512;" xml:space="preserve">
<style type="text/css">
	.st0{fill-rule:evenodd;clip-rule:evenodd;fill:#020203;}
</style>
<g id="_x2022_-Symbols">
	<g id="Element_x2F_Title" transform="translate(-4.000000, -47.000000)">
		<g id="Element_x2F_Picto_x2F_Wave-3" transform="translate(0.000000, 47.000000)">
			<g id="Group-3" transform="translate(38.000000, 3.000000)">
				<g id="Clip-2">
				</g>
			</g>
			<path id="Fill-1" class="st0" d="M169.7,211.3c-0.5,0-0.9,0.1-1.4,0.2c-6,0.9-11,6.5-11,12.6c0,12.8-7.1,25-20.8,34.8
				c-13.7,9.8-33.8,16.4-56.1,16.4c-22.6,0-42.7-6.8-56.4-16.8c-5.4-4.1-14-2.8-18,2.6c-4,5.4-2.7,14.1,2.8,18
				C27.6,292.9,52.9,301,80.5,301c27.2,0,52.1-7.8,70.9-21.2c7.5-5.4,13.6-12,18.8-19.2c5.2,7.2,11.3,13.9,18.8,19.2
				c18.7,13.4,43.6,21.2,70.9,21.2c27.2,0,52.1-7.8,70.9-21.2c7.5-5.4,13.6-12,18.8-19.2c5.2,7.2,11.3,13.9,18.8,19.2
				c18.7,13.4,43.6,21.2,70.9,21.2c27.6,0,52.8-8.1,71.7-21.8c5.5-3.9,6.8-12.6,2.8-18c-4-5.4-12.6-6.7-18-2.6
				c-13.7,10-33.9,16.8-56.5,16.8c-22.3,0-42.3-6.6-56.1-16.4c-13.7-9.8-20.8-22-20.8-34.8c0-6.1-5-11.8-11-12.6
				c-0.5-0.1-0.9-0.2-1.4-0.2c-6.8-0.2-13.2,6-13.2,12.8c0,12.8-7.1,25-20.8,34.8c-13.7,9.8-33.8,16.4-56,16.4
				c-22.3,0-42.3-6.6-56.1-16.4c-13.7-9.8-20.8-22-20.8-34.8C183,217.3,176.6,211.1,169.7,211.3"/>
		</g>
	</g>
</g>
</svg>
