<?xml version="1.0" encoding="utf-8"?>
<!-- Generator: Adobe Illustrator 25.4.1, SVG Export Plug-In . SVG Version: 6.00 Build 0)  -->
<svg version="1.1" id="Calque_1" xmlns="http://www.w3.org/2000/svg" xmlns:xlink="http://www.w3.org/1999/xlink" x="0px" y="0px"
	 viewBox="0 0 512 193" style="enable-background:new 0 0 512 193;" xml:space="preserve">
<g>
	<g>
		<path d="M277.9,87c0.9-0.9,2.1-1.1,3.2-0.4l9.4,5.5c1.4,0.9,1.7,2.7,0.7,3.9c-4.8,5.8-12.1,9.4-20.9,9.4
			c-15.4,0-26.5-11.2-26.5-25.8c0-14.7,11.1-25.9,26.5-25.9c8.8,0,16.1,3.6,20.9,9.4c1,1.3,0.7,3-0.7,3.9l-9.4,5.6
			c-1.1,0.6-2.3,0.4-3.2-0.5c-1.9-1.9-4.5-3-7.6-3c-6.3,0-10.5,4.8-10.5,10.6s4.2,10.5,10.5,10.5C273.4,90,276,88.8,277.9,87z"/>
		<path d="M358,79.5c0,14.6-11,25.9-26.5,25.9c-15.4,0-26.5-11.3-26.5-25.9c0-14.7,11.1-25.9,26.5-25.9
			C346.9,53.5,358,64.7,358,79.5z M342.1,79.5c0-5.8-4.2-10.6-10.6-10.6c-6.3,0-10.5,4.9-10.5,10.6c0,5.8,4.2,10.5,10.5,10.5
			C337.9,90,342.1,85.2,342.1,79.5z"/>
		<path d="M403.7,53.8c1.6-0.3,3.1,0.9,3.1,2.5v11.2c0,1.6-1.4,2.7-2.8,2.6c-11.5-0.8-12.9,6.6-12.9,14.4v16c0,2-1.6,3.5-3.4,3.5h-9
			c-1.9,0-3.4-1.6-3.4-3.5V58.1c0-2,1.6-3.5,3.4-3.5h9c1.9,0,3.4,1.6,3.4,3.5v4C394.1,57.6,398.8,54.7,403.7,53.8z"/>
		<path d="M460.6,54.7h9.8c2,0,3.5,1.6,3.5,3.5v42.4c0,2-1.6,3.5-3.5,3.5h-9.8c-1.5,0-2.6-1.2-2.6-2.6v-2.2c-2.9,3.6-7.3,6-13.9,6
			c-15.4,0-23.7-13-23.7-25.8c0-13,8.3-25.9,23.7-25.9c6.6,0,11,2.4,13.9,6v-2.2C457.9,55.9,459.1,54.7,460.6,54.7z M457.5,79.5
			c0-6.6-4.7-10.6-10.6-10.6c-6.5,0-10.5,4.5-10.5,10.6c0,6,4,10.5,10.5,10.5C452.8,90,457.5,86,457.5,79.5z"/>
		<path d="M497.6,35.9h9c1.9,0,3.4,1.6,3.4,3.5v61.3c0,2-1.6,3.5-3.4,3.5h-9c-1.9,0-3.4-1.6-3.4-3.5V39.4
			C494.2,37.4,495.8,35.9,497.6,35.9z"/>
	</g>
	<g>
		<path d="M261.9,141.8h10.2c0.6,0,1.1,0.5,1.1,1v13c0,0.5-0.4,0.9-0.9,0.9h-0.8c-0.5,0-0.8-0.4-0.9-0.8l-0.3-3.7
			c-1.9,3.1-5.1,5-9.8,5c-8.2,0-14-6.2-14-14.3s5.9-14.3,14-14.3c4.1,0,7.6,1.6,10.1,4.2c0.5,0.5,0.4,1.3-0.2,1.6l-1.5,1
			c-0.4,0.3-1,0.2-1.3-0.2c-1.7-1.8-4.1-2.9-7.1-2.9c-6.4,0-10,5.2-10,10.6s3.6,10.6,10,10.6c5.8,0,8.9-3.6,9.5-8.1h-8.1
			c-0.6,0-1.1-0.5-1.1-1.1v-1.5C260.8,142.2,261.3,141.8,261.9,141.8z"/>
		<path d="M308,129.1c0.6,0,1.1,0.5,1.1,1.1v16c0,7.2-3.7,10.9-10.5,10.9c-6.7,0-10.5-3.8-10.5-10.9v-16c0-0.6,0.5-1.1,1.1-1.1h1.9
			c0.6,0,1.1,0.5,1.1,1.1v15.3c0,5.9,2.6,8,6.5,8c4,0,6.5-2.1,6.5-8v-15.3c0-0.6,0.5-1.1,1.1-1.1H308z"/>
		<path d="M342,155.7l-2-5.7h-11.8l-2,5.7c-0.2,0.6-0.7,0.9-1.3,0.9h-2.3c-0.5,0-0.8-0.5-0.6-0.9l9.6-25.7c0.2-0.5,0.7-0.9,1.3-0.9
			h2.5c0.6,0,1.1,0.4,1.3,0.9l9.6,25.7c0.2,0.5-0.2,0.9-0.7,0.9h-2.2C342.7,156.6,342.2,156.3,342,155.7z M338.7,146.4l-4.6-13.1
			l-4.6,13.1H338.7z"/>
		<path d="M378.5,156.6h-2.2c-0.7,0-1.3-0.4-1.5-0.9l-5.2-9.7c-0.4,0-0.7,0-1.1,0h-4.6v9.6c0,0.6-0.5,1.1-1,1.1H361
			c-0.6,0-1.1-0.5-1.1-1.1v-25.4c0-0.6,0.5-1.1,1.1-1.1h7.4c6.3,0,9.9,3.7,9.9,8.5c0,3.3-1.7,6.1-5,7.5l5.8,10.3
			C379.6,155.9,379.2,156.6,378.5,156.6z M368.5,142.4c3.8,0,5.9-1.9,5.9-4.9s-2.1-4.9-5.9-4.9h-4.6v9.8L368.5,142.4L368.5,142.4z"
			/>
		<path d="M415.6,142.9c0,7.8-5,13.8-14.4,13.8h-6.7c-0.6,0-1.1-0.5-1.1-1.1v-25.4c0-0.6,0.5-1.1,1.1-1.1h6.7
			C410.6,129.1,415.6,135.1,415.6,142.9z M411.6,142.9c0-6.2-3.9-10.2-10.4-10.2h-3.9v20.4h3.9C407.8,153.1,411.6,149,411.6,142.9z"
			/>
		<path d="M431,129.1h1.9c0.6,0,1.1,0.5,1.1,1.1v25.4c0,0.6-0.5,1.1-1.1,1.1H431c-0.6,0-1.1-0.5-1.1-1.1v-25.4
			C430,129.6,430.4,129.1,431,129.1z"/>
		<path d="M467.7,155.7l-2-5.7h-11.8l-2,5.7c-0.2,0.6-0.7,0.9-1.3,0.9h-2.3c-0.5,0-0.8-0.5-0.6-0.9l9.6-25.7
			c0.2-0.5,0.7-0.9,1.3-0.9h2.5c0.6,0,1.1,0.4,1.3,0.9l9.6,25.7c0.2,0.5-0.2,0.9-0.7,0.9H469C468.4,156.6,467.9,156.3,467.7,155.7z
			 M464.4,146.4l-4.6-13.1l-4.6,13.1H464.4z"/>
		<path d="M504.5,129.1h1.9c0.6,0,1,0.5,1,1.1v25.4c0,0.6-0.5,1.1-1,1.1h-1.5c-0.6,0-1.1-0.3-1.4-0.7l-13.8-19.6v19.3
			c0,0.6-0.5,1.1-1,1.1h-1.9c-0.6,0-1.1-0.5-1.1-1.1v-25.4c0-0.6,0.5-1.1,1.1-1.1h1.5c0.6,0,1.1,0.3,1.5,0.7l13.7,19.5v-19.2
			C503.4,129.6,503.9,129.1,504.5,129.1z"/>
	</g>
	<path d="M193.3,78.1C183.1,25.8,132.4-8.4,80.1,1.8S-6.4,62.7,3.8,114.9C14,167.2,64.7,201.4,117,191.2
		C169.2,181.1,203.4,130.3,193.3,78.1z M152.2,171.9c-1.5-1.9-5.1-5-7.3-7.1c-1.7-1.6-8-6-3.6-12.7c4.7-7.1,7.3-10.3,9.5-12.9
		c3.4-4.1,5.2-6.4,11.1-19.1c8.3-18,12.9-28.9,10.9-41.9c-0.7-4.5-4-6.2-6.7-6.4c-2.5-0.2-4.6,1-5.1,2.9l-0.2,0.6
		c-1.4,5.3-1.5,5.4-1.6,9.4v1.6c-0.1,2.3-0.2,5.7-1.2,6.6c-0.1,0.1-0.4,0.3-1.3,0.2c-1.2-0.2-2.4-1-3.2-2.2
		c-6.4-9.2-8.4-10.1-13.1-8.6l-0.5,0.2c-1.1,0.4-2,1.2-2.4,2.3c-0.9,2.6,0.8,6.7,6,13.9c1.5,2.1,2.4,3.1,3.1,3.8
		c0.9,1,1.6,1.7,3.5,5c0.9,1.6-0.2,3.9-1.3,6.2c-0.4,0.8-0.8,1.7-1.1,2.4c-0.3,0.9-2.4,4.1-3.7,6c-3.3,4.8-7.9,9.3-10.4,11.6
		c-0.2,0.2-0.3,0.3-0.3,0.3c-1.5,1.6-2.1,1.6-2.1,1.6c-0.1,0-0.8-0.1-1-1.1c-3.3-14.4-2.4-11.6-6.1-21.3c-0.9-2.5-6.9-12.7-7.3-13.3
		c-0.7-3.1,0.4-6.6,1.5-10.6c1.4-4.9,3-10.4,2.5-17.4c-0.3-3.7-2.2-5.4-3.4-6.1c-1.6-1-3.4-1.2-4.9-0.6c-2.8,1.2-4.8,4.5-5.5,9
		c-0.6,4.1-0.7,5.7-0.8,7.4c0,0.6-0.1,1.1-0.1,1.8c-0.2,1.7-0.9,4-2,6.3C99.2,86,85.8,74.5,84.7,72.1c-0.9-3.8-0.6-6.7-0.3-10.1
		c0.2-2.2,0.4-4.4,0.4-7.1c-0.1-7.9-2.1-15-5.9-16.3c-2.2-0.7-5.3-1.5-7.5,0.2c-2.5,1.9-2.2,4.2-2,8.9c0.1,1.8,0.2,3.8,0.1,5.8
		c0,1.6-0.1,2.7,0,3.5l0,0c0,0.2,0,0.8,0,2.4c0,0.8-0.6,1.1-0.8,1.2c-0.2,0.1-0.9,0.3-1.4-0.3c-4-3.9-6.1-6.4-7.3-7.9
		c-2.2-2.6-3-3.4-6.2-2.9c-3.1,0.5-5.6,2.2-6.6,4.7c-0.8,2.1-1.1,5.6,2.6,10.4c5.4,7.2,8.8,9.6,13.9,13.2c2,1.4,4.4,3.1,7.2,5.3
		l1.2,0.9c4.3,3.4,13.4,10.4,24.8,21.8c3.8,3.8,8.5,11.6,10.2,15.2c4,8.3,6.8,19.6,5.4,22.7c-0.4,0.8-1,1.4-1.7,1.6
		s-1.5-0.1-2.3-0.7c-12.9-9-14.5-9.9-26.5-14.9c-2.6-1.1-4.2-4.2-7-9.3c-1.8-3.3-4-7.3-7.1-12.1c-2-3-3.8-5.5-6.4-5.5
		c-1.6-0.1-3,0.8-4.4,2.6c-1.1,1.4-1.8,2.1-2.4,2.6c-2.2,2-1.7,3.3-0.7,5.8c0.2,0.5,0.4,1.2,0.7,2c1.3,3.6,2.7,5.8,3.9,7.6
		c1.5,2.3,2.5,3.8,2.5,7.2c0,1.3-1.5,3.1-2.8,3.3c-1.4,0.3-5.3,1-5.7,1.1c-0.2,0.1-0.2,0-0.4,0.1c-5.9,0.9-8.9,2.1-10.2,3.9
		c-1.1,1.5-0.8,3-0.6,4l0.1,0.3c1.1,7.3,6,6.8,13.3,6.1c0.9-0.1,1.9-0.2,3-0.3c3-0.3,5.9-0.9,8.6-1.6c5.2-1.3,9.7-3.7,14.1-1.6
		c9.7,4.7,16.5,9.5,17,9.8c2.8,1.8,9.3,8.1,10.1,16.9c0.4,4.5-3.5,13.2-3.6,16.2c-39.3,1.6-86.6-23.6-96.5-74.6
		C-2.2,64.1,30.6,15.4,80.7,5.7s98.8,23.1,108.5,73.2C196.5,115.5,180.8,151.4,152.2,171.9z"/>
</g>
</svg>
