<?xml version="1.0" encoding="utf-8"?>
<!-- Generator: Adobe Illustrator 25.4.1, SVG Export Plug-In . SVG Version: 6.00 Build 0)  -->
<svg version="1.1" id="Calque_1" xmlns="http://www.w3.org/2000/svg" xmlns:xlink="http://www.w3.org/1999/xlink" x="0px" y="0px"
	 viewBox="0 0 512 512" style="enable-background:new 0 0 512 512;" xml:space="preserve">
<path d="M504.3,207.7C477.7,70.8,344.7-18.9,207.7,7.7S-18.9,167.3,7.7,304.3C34.3,441.2,167.4,531,304.3,504.4
	C441.2,477.7,530.9,344.7,504.3,207.7z M396.7,453.5c-3.9-5.1-13.5-13.2-19.2-18.5c-4.5-4.2-20.9-15.8-9.3-33.2
	c12.3-18.6,19.2-27,24.8-33.9c8.9-10.9,13.7-16.8,29-50.1c21.8-47.3,33.8-75.7,28.7-109.9c-1.8-11.7-10.5-16.3-17.4-16.7
	c-6.7-0.4-12.1,2.7-13.4,7.7l-0.5,1.6c-3.8,13.8-3.9,14.3-4.1,24.5l-0.1,4.1c-0.2,5.9-0.4,14.9-3.1,17.2c-0.2,0.2-1,0.8-3.3,0.5
	c-3.2-0.5-6.2-2.5-8.4-5.7c-16.7-24.2-22.1-26.4-34.3-22.5l-1.3,0.4c-3,0.9-5.2,3-6.2,5.9c-2.3,6.8,2.2,17.4,15.7,36.6
	c3.9,5.5,6.2,8,8.1,10c2.4,2.6,4.2,4.5,9.1,13.1c2.3,4.1-0.6,10.2-3.4,16.2c-1,2.2-2,4.4-2.8,6.4c-0.9,2.4-6.3,10.8-9.6,15.7
	c-8.6,12.7-20.8,24.5-27.3,30.3c-0.5,0.5-0.8,0.7-0.8,0.8c-3.9,4.3-5.6,4.2-5.6,4.2c-0.3,0-2.1-0.3-2.7-3
	c-8.7-37.8-6.2-30.3-15.9-55.7c-2.5-6.4-18-33.2-19.1-35c-1.7-8,0.9-17.2,4-27.8c3.7-12.8,8-27.4,6.7-45.5c-0.7-9.6-5.9-14.1-8.9-16
	c-4.1-2.5-9-3.1-12.7-1.5c-7.3,3-12.7,11.8-14.4,23.5c-1.6,10.7-1.9,14.9-2.2,19.4c-0.1,1.5-0.2,3-0.4,4.8
	c-0.4,4.6-2.3,10.5-5.2,16.5c-12.9-9.7-48-39.9-50.7-46.1c-2.3-9.9-1.6-17.6-0.7-26.4c0.6-5.7,1.1-11.6,1-18.7
	c-0.4-20.6-5.5-39.3-15.5-42.6c-5.7-1.9-13.9-3.9-19.7,0.5c-6.6,5-5.9,11-5.4,23.2c0.2,4.6,0.4,9.8,0.3,15.2c-0.1,4.1-0.2,7.1,0,9.1
	l0,0c0,0.5,0,2.1-0.1,6.4c0,2-1.5,2.8-2.1,3.1s-2.2,0.7-3.7-0.7c-10.5-10.3-15.9-16.8-19.2-20.7c-5.8-6.9-7.8-8.8-16.2-7.6
	c-8.2,1.2-14.8,5.8-17.4,12.3c-2.2,5.4-2.8,14.6,6.9,27.3c14.2,18.8,23.1,25.1,36.4,34.5c5.4,3.8,11.4,8.1,18.9,14l3.2,2.5
	c11.4,8.9,35.1,27.3,65.1,57.2c9.9,9.9,22.3,30.3,26.8,39.7c10.4,21.7,17.7,51.2,14.2,59.4c-1,2.2-2.5,3.7-4.4,4.1
	c-1.9,0.5-4-0.3-6.1-1.8c-33.7-23.5-38-25.9-69.4-39.2c-6.7-2.8-11.1-10.9-18.3-24.3c-4.6-8.6-10.4-19.2-18.6-31.7
	c-5.1-7.8-10-14.3-16.8-14.5c-4.1-0.1-8,2.1-11.5,6.8c-2.8,3.8-4.8,5.6-6.3,6.9c-5.7,5.2-4.4,8.6-1.8,15.3c0.5,1.4,1.2,3.1,1.9,5.1
	c3.4,9.3,7.1,15.1,10.1,19.8c3.9,6.1,6.4,10,6.6,19c0.1,3.3-3.9,8-7.2,8.7c-3.7,0.8-13.8,2.6-14.9,2.8c-0.5,0.2-0.6,0.1-0.9,0.1
	c-15.5,2.5-23.3,5.5-26.7,10.3c-2.8,3.9-2.1,7.9-1.7,10.4l0.1,0.9c2.9,19.1,15.6,17.8,35,16c2.4-0.2,5.1-0.5,7.9-0.7
	c8-0.7,15.4-2.5,22.6-4.2c13.5-3.3,25.5-9.7,37-4.1c25.5,12.4,43.2,24.8,44.5,25.6c7.5,4.7,24.3,21.3,26.4,44.3
	c1.1,11.9-9.1,34.5-9.5,42.4c-103,4.2-226.9-61.8-252.8-195.4C-7.6,171,78.5,43.4,209.7,17.9C341-7.6,468.5,78.5,494.1,209.7
	C512.7,305.8,471.6,400,396.7,453.5z"/>
</svg>
